<mxfile host="Electron" modified="2024-05-01T07:31:18.326Z" agent="Mozilla/5.0 (Windows NT 10.0; Win64; x64) AppleWebKit/537.36 (KHTML, like Gecko) draw.io/21.6.8 Chrome/114.0.5735.289 Electron/25.5.0 Safari/537.36" etag="wO8j-8Zkg-ZiWg83whlN" version="21.6.8" type="device">
  <diagram name="Page-1" id="PM_dsRDSb8G9-8mtcC_H">
    <mxGraphModel dx="1421" dy="821" grid="1" gridSize="10" guides="1" tooltips="1" connect="1" arrows="1" fold="1" page="1" pageScale="1" pageWidth="827" pageHeight="1169" math="1" shadow="0">
      <root>
        <mxCell id="0" />
        <mxCell id="1" parent="0" />
        <mxCell id="sZlEgf58-mVy-AABWBIX-1" value="" style="rounded=0;whiteSpace=wrap;html=1;glass=0;sketch=0;fillStyle=auto;sketchStyle=rough;fontSize=20;strokeColor=#000000;strokeWidth=1;fillColor=#FFFFFF;gradientColor=none;gradientDirection=north;container=0;" vertex="1" parent="1">
          <mxGeometry x="20" y="30" width="660" height="230" as="geometry" />
        </mxCell>
        <mxCell id="sZlEgf58-mVy-AABWBIX-86" value="" style="rounded=0;whiteSpace=wrap;html=1;glass=0;sketch=0;fillStyle=auto;sketchStyle=rough;fontSize=20;strokeColor=none;strokeWidth=1;fillColor=#EDEDED;gradientColor=none;gradientDirection=north;container=0;" vertex="1" parent="1">
          <mxGeometry x="480" y="80" width="160" height="120" as="geometry" />
        </mxCell>
        <mxCell id="sZlEgf58-mVy-AABWBIX-118" value="" style="group" vertex="1" connectable="0" parent="1">
          <mxGeometry x="480" y="90" width="160" height="100" as="geometry" />
        </mxCell>
        <mxCell id="sZlEgf58-mVy-AABWBIX-119" value="" style="endArrow=none;html=1;strokeWidth=1;rounded=0;fontSize=20;startSize=5;endSize=5;targetPerimeterSpacing=0;jumpStyle=none;jumpSize=6;strokeColor=#808080;fontStyle=0" edge="1" parent="sZlEgf58-mVy-AABWBIX-118">
          <mxGeometry width="50" height="50" relative="1" as="geometry">
            <mxPoint y="100" as="sourcePoint" />
            <mxPoint x="160" y="100" as="targetPoint" />
          </mxGeometry>
        </mxCell>
        <mxCell id="sZlEgf58-mVy-AABWBIX-120" value="" style="endArrow=none;dashed=1;html=1;strokeWidth=1;rounded=0;fontSize=20;startSize=5;endSize=5;targetPerimeterSpacing=0;jumpStyle=none;jumpSize=6;strokeColor=#808080;fontStyle=0" edge="1" parent="sZlEgf58-mVy-AABWBIX-118">
          <mxGeometry width="50" height="50" relative="1" as="geometry">
            <mxPoint y="80" as="sourcePoint" />
            <mxPoint x="160" y="80" as="targetPoint" />
          </mxGeometry>
        </mxCell>
        <mxCell id="sZlEgf58-mVy-AABWBIX-121" value="" style="endArrow=none;dashed=1;html=1;strokeWidth=1;rounded=0;fontSize=20;startSize=5;endSize=5;targetPerimeterSpacing=0;jumpStyle=none;jumpSize=6;strokeColor=#808080;fontStyle=0" edge="1" parent="sZlEgf58-mVy-AABWBIX-118">
          <mxGeometry width="50" height="50" relative="1" as="geometry">
            <mxPoint y="60" as="sourcePoint" />
            <mxPoint x="160" y="60" as="targetPoint" />
          </mxGeometry>
        </mxCell>
        <mxCell id="sZlEgf58-mVy-AABWBIX-122" value="" style="endArrow=none;dashed=1;html=1;strokeWidth=1;rounded=0;fontSize=20;startSize=5;endSize=5;targetPerimeterSpacing=0;jumpStyle=none;jumpSize=6;strokeColor=#808080;fontStyle=0" edge="1" parent="sZlEgf58-mVy-AABWBIX-118">
          <mxGeometry width="50" height="50" relative="1" as="geometry">
            <mxPoint y="40" as="sourcePoint" />
            <mxPoint x="160" y="40" as="targetPoint" />
          </mxGeometry>
        </mxCell>
        <mxCell id="sZlEgf58-mVy-AABWBIX-123" value="" style="endArrow=none;dashed=1;html=1;strokeWidth=1;rounded=0;fontSize=20;startSize=5;endSize=5;targetPerimeterSpacing=0;jumpStyle=none;jumpSize=6;strokeColor=#808080;fontStyle=0" edge="1" parent="sZlEgf58-mVy-AABWBIX-118">
          <mxGeometry width="50" height="50" relative="1" as="geometry">
            <mxPoint y="20" as="sourcePoint" />
            <mxPoint x="160" y="20" as="targetPoint" />
          </mxGeometry>
        </mxCell>
        <mxCell id="sZlEgf58-mVy-AABWBIX-124" value="" style="endArrow=none;dashed=1;html=1;strokeWidth=1;rounded=0;fontSize=20;startSize=5;endSize=5;targetPerimeterSpacing=0;jumpStyle=none;jumpSize=6;strokeColor=#808080;fontStyle=0" edge="1" parent="sZlEgf58-mVy-AABWBIX-118">
          <mxGeometry width="50" height="50" relative="1" as="geometry">
            <mxPoint as="sourcePoint" />
            <mxPoint x="160" as="targetPoint" />
          </mxGeometry>
        </mxCell>
        <mxCell id="sZlEgf58-mVy-AABWBIX-3" value="" style="rounded=0;whiteSpace=wrap;html=1;glass=0;sketch=0;fillStyle=auto;sketchStyle=rough;fontSize=20;strokeColor=none;strokeWidth=1;fillColor=#EDEDED;gradientColor=none;gradientDirection=north;container=0;" vertex="1" parent="1">
          <mxGeometry x="80" y="80" width="160" height="120" as="geometry" />
        </mxCell>
        <mxCell id="sZlEgf58-mVy-AABWBIX-111" value="" style="group" vertex="1" connectable="0" parent="1">
          <mxGeometry x="80" y="90" width="160" height="100" as="geometry" />
        </mxCell>
        <mxCell id="sZlEgf58-mVy-AABWBIX-112" value="" style="endArrow=none;html=1;strokeWidth=1;rounded=0;fontSize=20;startSize=5;endSize=5;targetPerimeterSpacing=0;jumpStyle=none;jumpSize=6;strokeColor=#808080;fontStyle=0" edge="1" parent="sZlEgf58-mVy-AABWBIX-111">
          <mxGeometry width="50" height="50" relative="1" as="geometry">
            <mxPoint y="100" as="sourcePoint" />
            <mxPoint x="160" y="100" as="targetPoint" />
          </mxGeometry>
        </mxCell>
        <mxCell id="sZlEgf58-mVy-AABWBIX-113" value="" style="endArrow=none;dashed=1;html=1;strokeWidth=1;rounded=0;fontSize=20;startSize=5;endSize=5;targetPerimeterSpacing=0;jumpStyle=none;jumpSize=6;strokeColor=#808080;fontStyle=0" edge="1" parent="sZlEgf58-mVy-AABWBIX-111">
          <mxGeometry width="50" height="50" relative="1" as="geometry">
            <mxPoint y="80" as="sourcePoint" />
            <mxPoint x="160" y="80" as="targetPoint" />
          </mxGeometry>
        </mxCell>
        <mxCell id="sZlEgf58-mVy-AABWBIX-114" value="" style="endArrow=none;dashed=1;html=1;strokeWidth=1;rounded=0;fontSize=20;startSize=5;endSize=5;targetPerimeterSpacing=0;jumpStyle=none;jumpSize=6;strokeColor=#808080;fontStyle=0" edge="1" parent="sZlEgf58-mVy-AABWBIX-111">
          <mxGeometry width="50" height="50" relative="1" as="geometry">
            <mxPoint y="60" as="sourcePoint" />
            <mxPoint x="160" y="60" as="targetPoint" />
          </mxGeometry>
        </mxCell>
        <mxCell id="sZlEgf58-mVy-AABWBIX-115" value="" style="endArrow=none;dashed=1;html=1;strokeWidth=1;rounded=0;fontSize=20;startSize=5;endSize=5;targetPerimeterSpacing=0;jumpStyle=none;jumpSize=6;strokeColor=#808080;fontStyle=0" edge="1" parent="sZlEgf58-mVy-AABWBIX-111">
          <mxGeometry width="50" height="50" relative="1" as="geometry">
            <mxPoint y="40" as="sourcePoint" />
            <mxPoint x="160" y="40" as="targetPoint" />
          </mxGeometry>
        </mxCell>
        <mxCell id="sZlEgf58-mVy-AABWBIX-116" value="" style="endArrow=none;dashed=1;html=1;strokeWidth=1;rounded=0;fontSize=20;startSize=5;endSize=5;targetPerimeterSpacing=0;jumpStyle=none;jumpSize=6;strokeColor=#808080;fontStyle=0" edge="1" parent="sZlEgf58-mVy-AABWBIX-111">
          <mxGeometry width="50" height="50" relative="1" as="geometry">
            <mxPoint y="20" as="sourcePoint" />
            <mxPoint x="160" y="20" as="targetPoint" />
          </mxGeometry>
        </mxCell>
        <mxCell id="sZlEgf58-mVy-AABWBIX-117" value="" style="endArrow=none;dashed=1;html=1;strokeWidth=1;rounded=0;fontSize=20;startSize=5;endSize=5;targetPerimeterSpacing=0;jumpStyle=none;jumpSize=6;strokeColor=#808080;fontStyle=0" edge="1" parent="sZlEgf58-mVy-AABWBIX-111">
          <mxGeometry width="50" height="50" relative="1" as="geometry">
            <mxPoint as="sourcePoint" />
            <mxPoint x="160" as="targetPoint" />
          </mxGeometry>
        </mxCell>
        <mxCell id="sZlEgf58-mVy-AABWBIX-92" value="" style="group" vertex="1" connectable="0" parent="1">
          <mxGeometry x="490" y="90" width="140" height="100" as="geometry" />
        </mxCell>
        <mxCell id="sZlEgf58-mVy-AABWBIX-78" value="" style="rounded=0;whiteSpace=wrap;html=1;fillColor=#CCFFFF;" vertex="1" parent="sZlEgf58-mVy-AABWBIX-92">
          <mxGeometry x="40" y="60" width="20" height="40" as="geometry" />
        </mxCell>
        <mxCell id="sZlEgf58-mVy-AABWBIX-79" value="" style="rounded=0;whiteSpace=wrap;html=1;fillColor=#CCFFFF;" vertex="1" parent="sZlEgf58-mVy-AABWBIX-92">
          <mxGeometry x="60" y="40" width="20" height="60" as="geometry" />
        </mxCell>
        <mxCell id="sZlEgf58-mVy-AABWBIX-80" value="" style="rounded=0;whiteSpace=wrap;html=1;fillColor=#CCFFFF;" vertex="1" parent="sZlEgf58-mVy-AABWBIX-92">
          <mxGeometry x="80" width="20" height="100" as="geometry" />
        </mxCell>
        <mxCell id="sZlEgf58-mVy-AABWBIX-81" value="" style="rounded=0;whiteSpace=wrap;html=1;fillColor=#CCFFFF;" vertex="1" parent="sZlEgf58-mVy-AABWBIX-92">
          <mxGeometry x="100" y="20" width="20" height="80" as="geometry" />
        </mxCell>
        <mxCell id="sZlEgf58-mVy-AABWBIX-82" value="" style="rounded=0;whiteSpace=wrap;html=1;fillColor=#CCFFFF;" vertex="1" parent="sZlEgf58-mVy-AABWBIX-92">
          <mxGeometry x="120" y="60" width="20" height="40" as="geometry" />
        </mxCell>
        <mxCell id="sZlEgf58-mVy-AABWBIX-83" value="" style="rounded=0;whiteSpace=wrap;html=1;fillColor=#CCFFFF;" vertex="1" parent="sZlEgf58-mVy-AABWBIX-92">
          <mxGeometry y="80" width="20" height="20" as="geometry" />
        </mxCell>
        <mxCell id="sZlEgf58-mVy-AABWBIX-84" value="" style="rounded=0;whiteSpace=wrap;html=1;fillColor=#CCFFFF;" vertex="1" parent="sZlEgf58-mVy-AABWBIX-92">
          <mxGeometry x="20" y="80" width="20" height="20" as="geometry" />
        </mxCell>
        <mxCell id="sZlEgf58-mVy-AABWBIX-90" value="" style="group" vertex="1" connectable="0" parent="1">
          <mxGeometry x="110" y="90" width="100" height="100" as="geometry" />
        </mxCell>
        <mxCell id="sZlEgf58-mVy-AABWBIX-60" value="" style="rounded=0;whiteSpace=wrap;html=1;fillColor=#CCFFFF;" vertex="1" parent="sZlEgf58-mVy-AABWBIX-90">
          <mxGeometry y="60" width="20" height="40" as="geometry" />
        </mxCell>
        <mxCell id="sZlEgf58-mVy-AABWBIX-61" value="" style="rounded=0;whiteSpace=wrap;html=1;fillColor=#CCFFFF;" vertex="1" parent="sZlEgf58-mVy-AABWBIX-90">
          <mxGeometry x="20" y="20" width="20" height="80" as="geometry" />
        </mxCell>
        <mxCell id="sZlEgf58-mVy-AABWBIX-62" value="" style="rounded=0;whiteSpace=wrap;html=1;fillColor=#CCFFFF;" vertex="1" parent="sZlEgf58-mVy-AABWBIX-90">
          <mxGeometry x="40" width="20" height="100" as="geometry" />
        </mxCell>
        <mxCell id="sZlEgf58-mVy-AABWBIX-63" value="" style="rounded=0;whiteSpace=wrap;html=1;fillColor=#CCFFFF;" vertex="1" parent="sZlEgf58-mVy-AABWBIX-90">
          <mxGeometry x="60" y="60" width="20" height="40" as="geometry" />
        </mxCell>
        <mxCell id="sZlEgf58-mVy-AABWBIX-64" value="" style="rounded=0;whiteSpace=wrap;html=1;fillColor=#CCFFFF;" vertex="1" parent="sZlEgf58-mVy-AABWBIX-90">
          <mxGeometry x="80" y="80" width="20" height="20" as="geometry" />
        </mxCell>
        <mxCell id="sZlEgf58-mVy-AABWBIX-85" value="" style="rounded=0;whiteSpace=wrap;html=1;glass=0;sketch=0;fillStyle=auto;sketchStyle=rough;fontSize=20;strokeColor=none;strokeWidth=1;fillColor=#EDEDED;gradientColor=none;gradientDirection=north;container=0;" vertex="1" parent="1">
          <mxGeometry x="280" y="80" width="160" height="120" as="geometry" />
        </mxCell>
        <mxCell id="sZlEgf58-mVy-AABWBIX-102" value="" style="group" vertex="1" connectable="0" parent="1">
          <mxGeometry x="280" y="90" width="160" height="100" as="geometry" />
        </mxCell>
        <mxCell id="sZlEgf58-mVy-AABWBIX-7" value="" style="endArrow=none;html=1;strokeWidth=1;rounded=0;fontSize=20;startSize=5;endSize=5;targetPerimeterSpacing=0;jumpStyle=none;jumpSize=6;strokeColor=#808080;fontStyle=0" edge="1" parent="sZlEgf58-mVy-AABWBIX-102">
          <mxGeometry width="50" height="50" relative="1" as="geometry">
            <mxPoint y="100" as="sourcePoint" />
            <mxPoint x="160" y="100" as="targetPoint" />
          </mxGeometry>
        </mxCell>
        <mxCell id="sZlEgf58-mVy-AABWBIX-97" value="" style="endArrow=none;dashed=1;html=1;strokeWidth=1;rounded=0;fontSize=20;startSize=5;endSize=5;targetPerimeterSpacing=0;jumpStyle=none;jumpSize=6;strokeColor=#808080;fontStyle=0" edge="1" parent="sZlEgf58-mVy-AABWBIX-102">
          <mxGeometry width="50" height="50" relative="1" as="geometry">
            <mxPoint y="80" as="sourcePoint" />
            <mxPoint x="160" y="80" as="targetPoint" />
          </mxGeometry>
        </mxCell>
        <mxCell id="sZlEgf58-mVy-AABWBIX-98" value="" style="endArrow=none;dashed=1;html=1;strokeWidth=1;rounded=0;fontSize=20;startSize=5;endSize=5;targetPerimeterSpacing=0;jumpStyle=none;jumpSize=6;strokeColor=#808080;fontStyle=0" edge="1" parent="sZlEgf58-mVy-AABWBIX-102">
          <mxGeometry width="50" height="50" relative="1" as="geometry">
            <mxPoint y="60" as="sourcePoint" />
            <mxPoint x="160" y="60" as="targetPoint" />
          </mxGeometry>
        </mxCell>
        <mxCell id="sZlEgf58-mVy-AABWBIX-99" value="" style="endArrow=none;dashed=1;html=1;strokeWidth=1;rounded=0;fontSize=20;startSize=5;endSize=5;targetPerimeterSpacing=0;jumpStyle=none;jumpSize=6;strokeColor=#808080;fontStyle=0" edge="1" parent="sZlEgf58-mVy-AABWBIX-102">
          <mxGeometry width="50" height="50" relative="1" as="geometry">
            <mxPoint y="40" as="sourcePoint" />
            <mxPoint x="160" y="40" as="targetPoint" />
          </mxGeometry>
        </mxCell>
        <mxCell id="sZlEgf58-mVy-AABWBIX-100" value="" style="endArrow=none;dashed=1;html=1;strokeWidth=1;rounded=0;fontSize=20;startSize=5;endSize=5;targetPerimeterSpacing=0;jumpStyle=none;jumpSize=6;strokeColor=#808080;fontStyle=0" edge="1" parent="sZlEgf58-mVy-AABWBIX-102">
          <mxGeometry width="50" height="50" relative="1" as="geometry">
            <mxPoint y="20" as="sourcePoint" />
            <mxPoint x="160" y="20" as="targetPoint" />
          </mxGeometry>
        </mxCell>
        <mxCell id="sZlEgf58-mVy-AABWBIX-101" value="" style="endArrow=none;dashed=1;html=1;strokeWidth=1;rounded=0;fontSize=20;startSize=5;endSize=5;targetPerimeterSpacing=0;jumpStyle=none;jumpSize=6;strokeColor=#808080;fontStyle=0" edge="1" parent="sZlEgf58-mVy-AABWBIX-102">
          <mxGeometry width="50" height="50" relative="1" as="geometry">
            <mxPoint as="sourcePoint" />
            <mxPoint x="160" as="targetPoint" />
          </mxGeometry>
        </mxCell>
        <mxCell id="sZlEgf58-mVy-AABWBIX-91" value="" style="group" vertex="1" connectable="0" parent="1">
          <mxGeometry x="290" y="90" width="140" height="100" as="geometry" />
        </mxCell>
        <mxCell id="sZlEgf58-mVy-AABWBIX-66" value="" style="rounded=0;whiteSpace=wrap;html=1;fillColor=#CCFFFF;" vertex="1" parent="sZlEgf58-mVy-AABWBIX-91">
          <mxGeometry x="40" width="20" height="100" as="geometry" />
        </mxCell>
        <mxCell id="sZlEgf58-mVy-AABWBIX-67" value="" style="rounded=0;whiteSpace=wrap;html=1;fillColor=#CCFFFF;" vertex="1" parent="sZlEgf58-mVy-AABWBIX-91">
          <mxGeometry x="60" y="40" width="20" height="60" as="geometry" />
        </mxCell>
        <mxCell id="sZlEgf58-mVy-AABWBIX-68" value="" style="rounded=0;whiteSpace=wrap;html=1;fillColor=#CCFFFF;" vertex="1" parent="sZlEgf58-mVy-AABWBIX-91">
          <mxGeometry x="80" width="20" height="100" as="geometry" />
        </mxCell>
        <mxCell id="sZlEgf58-mVy-AABWBIX-69" value="" style="rounded=0;whiteSpace=wrap;html=1;fillColor=#CCFFFF;" vertex="1" parent="sZlEgf58-mVy-AABWBIX-91">
          <mxGeometry x="100" y="40" width="20" height="60" as="geometry" />
        </mxCell>
        <mxCell id="sZlEgf58-mVy-AABWBIX-70" value="" style="rounded=0;whiteSpace=wrap;html=1;fillColor=#CCFFFF;" vertex="1" parent="sZlEgf58-mVy-AABWBIX-91">
          <mxGeometry x="120" y="80" width="20" height="20" as="geometry" />
        </mxCell>
        <mxCell id="sZlEgf58-mVy-AABWBIX-76" value="" style="rounded=0;whiteSpace=wrap;html=1;fillColor=#CCFFFF;" vertex="1" parent="sZlEgf58-mVy-AABWBIX-91">
          <mxGeometry y="80" width="20" height="20" as="geometry" />
        </mxCell>
        <mxCell id="sZlEgf58-mVy-AABWBIX-77" value="" style="rounded=0;whiteSpace=wrap;html=1;fillColor=#CCFFFF;" vertex="1" parent="sZlEgf58-mVy-AABWBIX-91">
          <mxGeometry x="20" y="40" width="20" height="60" as="geometry" />
        </mxCell>
        <mxCell id="sZlEgf58-mVy-AABWBIX-208" value="0" style="text;html=1;strokeColor=none;fillColor=none;align=right;verticalAlign=middle;whiteSpace=wrap;rounded=0;" vertex="1" parent="1">
          <mxGeometry x="40" y="180" width="20" height="20" as="geometry" />
        </mxCell>
        <mxCell id="sZlEgf58-mVy-AABWBIX-209" value="1" style="text;html=1;strokeColor=none;fillColor=none;align=right;verticalAlign=middle;whiteSpace=wrap;rounded=0;" vertex="1" parent="1">
          <mxGeometry x="40" y="160" width="20" height="20" as="geometry" />
        </mxCell>
        <mxCell id="sZlEgf58-mVy-AABWBIX-210" value="2" style="text;html=1;strokeColor=none;fillColor=none;align=right;verticalAlign=middle;whiteSpace=wrap;rounded=0;" vertex="1" parent="1">
          <mxGeometry x="40" y="140" width="20" height="20" as="geometry" />
        </mxCell>
        <mxCell id="sZlEgf58-mVy-AABWBIX-211" value="3" style="text;html=1;strokeColor=none;fillColor=none;align=right;verticalAlign=middle;whiteSpace=wrap;rounded=0;" vertex="1" parent="1">
          <mxGeometry x="40" y="120" width="20" height="20" as="geometry" />
        </mxCell>
        <mxCell id="sZlEgf58-mVy-AABWBIX-197" value="" style="endArrow=none;html=1;rounded=0;strokeWidth=1;" edge="1" parent="1">
          <mxGeometry width="50" height="50" relative="1" as="geometry">
            <mxPoint x="70" y="90" as="sourcePoint" />
            <mxPoint x="70" y="190" as="targetPoint" />
          </mxGeometry>
        </mxCell>
        <mxCell id="sZlEgf58-mVy-AABWBIX-200" value="" style="endArrow=none;html=1;rounded=0;strokeWidth=1;" edge="1" parent="1">
          <mxGeometry width="50" height="50" relative="1" as="geometry">
            <mxPoint x="75" y="90" as="sourcePoint" />
            <mxPoint x="65" y="90" as="targetPoint" />
          </mxGeometry>
        </mxCell>
        <mxCell id="sZlEgf58-mVy-AABWBIX-201" value="" style="endArrow=none;html=1;rounded=0;strokeWidth=1;" edge="1" parent="1">
          <mxGeometry width="50" height="50" relative="1" as="geometry">
            <mxPoint x="75" y="190" as="sourcePoint" />
            <mxPoint x="65" y="190" as="targetPoint" />
          </mxGeometry>
        </mxCell>
        <mxCell id="sZlEgf58-mVy-AABWBIX-213" value="" style="endArrow=none;html=1;rounded=0;strokeWidth=1;" edge="1" parent="1">
          <mxGeometry width="50" height="50" relative="1" as="geometry">
            <mxPoint x="75" y="110" as="sourcePoint" />
            <mxPoint x="65" y="110" as="targetPoint" />
          </mxGeometry>
        </mxCell>
        <mxCell id="sZlEgf58-mVy-AABWBIX-214" value="" style="endArrow=none;html=1;rounded=0;strokeWidth=1;" edge="1" parent="1">
          <mxGeometry width="50" height="50" relative="1" as="geometry">
            <mxPoint x="75" y="130" as="sourcePoint" />
            <mxPoint x="65" y="130" as="targetPoint" />
          </mxGeometry>
        </mxCell>
        <mxCell id="sZlEgf58-mVy-AABWBIX-215" value="" style="endArrow=none;html=1;rounded=0;strokeWidth=1;" edge="1" parent="1">
          <mxGeometry width="50" height="50" relative="1" as="geometry">
            <mxPoint x="75" y="150" as="sourcePoint" />
            <mxPoint x="65" y="150" as="targetPoint" />
          </mxGeometry>
        </mxCell>
        <mxCell id="sZlEgf58-mVy-AABWBIX-216" value="" style="endArrow=none;html=1;rounded=0;strokeWidth=1;" edge="1" parent="1">
          <mxGeometry width="50" height="50" relative="1" as="geometry">
            <mxPoint x="75" y="170" as="sourcePoint" />
            <mxPoint x="65" y="170" as="targetPoint" />
          </mxGeometry>
        </mxCell>
        <mxCell id="sZlEgf58-mVy-AABWBIX-152" value="-3" style="text;html=1;strokeColor=none;fillColor=none;align=left;verticalAlign=bottom;whiteSpace=wrap;rounded=0;" vertex="1" parent="1">
          <mxGeometry x="90" y="220" width="20" height="20" as="geometry" />
        </mxCell>
        <mxCell id="sZlEgf58-mVy-AABWBIX-154" value="-2" style="text;html=1;strokeColor=none;fillColor=none;align=left;verticalAlign=bottom;whiteSpace=wrap;rounded=0;" vertex="1" parent="1">
          <mxGeometry x="110" y="220" width="20" height="20" as="geometry" />
        </mxCell>
        <mxCell id="sZlEgf58-mVy-AABWBIX-155" value="-1" style="text;html=1;strokeColor=none;fillColor=none;align=left;verticalAlign=bottom;whiteSpace=wrap;rounded=0;" vertex="1" parent="1">
          <mxGeometry x="130" y="220" width="20" height="20" as="geometry" />
        </mxCell>
        <mxCell id="sZlEgf58-mVy-AABWBIX-156" value="0" style="text;html=1;strokeColor=none;fillColor=none;align=center;verticalAlign=bottom;whiteSpace=wrap;rounded=0;" vertex="1" parent="1">
          <mxGeometry x="150" y="220" width="20" height="20" as="geometry" />
        </mxCell>
        <mxCell id="sZlEgf58-mVy-AABWBIX-157" value="1" style="text;html=1;strokeColor=none;fillColor=none;align=center;verticalAlign=bottom;whiteSpace=wrap;rounded=0;" vertex="1" parent="1">
          <mxGeometry x="170" y="220" width="20" height="20" as="geometry" />
        </mxCell>
        <mxCell id="sZlEgf58-mVy-AABWBIX-158" value="2" style="text;html=1;strokeColor=none;fillColor=none;align=center;verticalAlign=bottom;whiteSpace=wrap;rounded=0;" vertex="1" parent="1">
          <mxGeometry x="190" y="220" width="20" height="20" as="geometry" />
        </mxCell>
        <mxCell id="sZlEgf58-mVy-AABWBIX-159" value="3" style="text;html=1;strokeColor=none;fillColor=none;align=center;verticalAlign=bottom;whiteSpace=wrap;rounded=0;" vertex="1" parent="1">
          <mxGeometry x="210" y="220" width="20" height="20" as="geometry" />
        </mxCell>
        <mxCell id="sZlEgf58-mVy-AABWBIX-125" value="" style="endArrow=none;html=1;rounded=0;strokeWidth=1;" edge="1" parent="1">
          <mxGeometry width="50" height="50" relative="1" as="geometry">
            <mxPoint x="90" y="210" as="sourcePoint" />
            <mxPoint x="230" y="210" as="targetPoint" />
          </mxGeometry>
        </mxCell>
        <mxCell id="sZlEgf58-mVy-AABWBIX-126" value="" style="endArrow=none;html=1;rounded=0;strokeWidth=1;" edge="1" parent="1">
          <mxGeometry width="50" height="50" relative="1" as="geometry">
            <mxPoint x="160" y="205" as="sourcePoint" />
            <mxPoint x="160" y="215" as="targetPoint" />
          </mxGeometry>
        </mxCell>
        <mxCell id="sZlEgf58-mVy-AABWBIX-127" value="" style="endArrow=none;html=1;rounded=0;strokeWidth=1;" edge="1" parent="1">
          <mxGeometry width="50" height="50" relative="1" as="geometry">
            <mxPoint x="180" y="205" as="sourcePoint" />
            <mxPoint x="180" y="215" as="targetPoint" />
          </mxGeometry>
        </mxCell>
        <mxCell id="sZlEgf58-mVy-AABWBIX-128" value="" style="endArrow=none;html=1;rounded=0;strokeWidth=1;" edge="1" parent="1">
          <mxGeometry width="50" height="50" relative="1" as="geometry">
            <mxPoint x="200" y="205" as="sourcePoint" />
            <mxPoint x="200" y="215" as="targetPoint" />
          </mxGeometry>
        </mxCell>
        <mxCell id="sZlEgf58-mVy-AABWBIX-129" value="" style="endArrow=none;html=1;rounded=0;strokeWidth=1;" edge="1" parent="1">
          <mxGeometry width="50" height="50" relative="1" as="geometry">
            <mxPoint x="220" y="205" as="sourcePoint" />
            <mxPoint x="220" y="215" as="targetPoint" />
          </mxGeometry>
        </mxCell>
        <mxCell id="sZlEgf58-mVy-AABWBIX-130" value="" style="endArrow=none;html=1;rounded=0;strokeWidth=1;" edge="1" parent="1">
          <mxGeometry width="50" height="50" relative="1" as="geometry">
            <mxPoint x="140" y="205" as="sourcePoint" />
            <mxPoint x="140" y="215" as="targetPoint" />
          </mxGeometry>
        </mxCell>
        <mxCell id="sZlEgf58-mVy-AABWBIX-131" value="" style="endArrow=none;html=1;rounded=0;strokeWidth=1;" edge="1" parent="1">
          <mxGeometry width="50" height="50" relative="1" as="geometry">
            <mxPoint x="120" y="205" as="sourcePoint" />
            <mxPoint x="120" y="215" as="targetPoint" />
          </mxGeometry>
        </mxCell>
        <mxCell id="sZlEgf58-mVy-AABWBIX-132" value="" style="endArrow=none;html=1;rounded=0;strokeWidth=1;" edge="1" parent="1">
          <mxGeometry width="50" height="50" relative="1" as="geometry">
            <mxPoint x="100" y="205" as="sourcePoint" />
            <mxPoint x="100" y="215" as="targetPoint" />
          </mxGeometry>
        </mxCell>
        <mxCell id="sZlEgf58-mVy-AABWBIX-171" value="-3" style="text;html=1;strokeColor=none;fillColor=none;align=left;verticalAlign=middle;whiteSpace=wrap;rounded=0;container=0;" vertex="1" parent="1">
          <mxGeometry x="290" y="220" width="20" height="20" as="geometry" />
        </mxCell>
        <mxCell id="sZlEgf58-mVy-AABWBIX-172" value="-2" style="text;html=1;strokeColor=none;fillColor=none;align=left;verticalAlign=middle;whiteSpace=wrap;rounded=0;container=0;" vertex="1" parent="1">
          <mxGeometry x="310" y="220" width="20" height="20" as="geometry" />
        </mxCell>
        <mxCell id="sZlEgf58-mVy-AABWBIX-173" value="-1" style="text;html=1;strokeColor=none;fillColor=none;align=left;verticalAlign=middle;whiteSpace=wrap;rounded=0;container=0;" vertex="1" parent="1">
          <mxGeometry x="330" y="220" width="20" height="20" as="geometry" />
        </mxCell>
        <mxCell id="sZlEgf58-mVy-AABWBIX-174" value="0" style="text;html=1;strokeColor=none;fillColor=none;align=center;verticalAlign=middle;whiteSpace=wrap;rounded=0;container=0;" vertex="1" parent="1">
          <mxGeometry x="350" y="220" width="20" height="20" as="geometry" />
        </mxCell>
        <mxCell id="sZlEgf58-mVy-AABWBIX-175" value="1" style="text;html=1;strokeColor=none;fillColor=none;align=center;verticalAlign=middle;whiteSpace=wrap;rounded=0;container=0;" vertex="1" parent="1">
          <mxGeometry x="370" y="220" width="20" height="20" as="geometry" />
        </mxCell>
        <mxCell id="sZlEgf58-mVy-AABWBIX-176" value="2" style="text;html=1;strokeColor=none;fillColor=none;align=center;verticalAlign=middle;whiteSpace=wrap;rounded=0;container=0;" vertex="1" parent="1">
          <mxGeometry x="390" y="220" width="20" height="20" as="geometry" />
        </mxCell>
        <mxCell id="sZlEgf58-mVy-AABWBIX-177" value="3" style="text;html=1;strokeColor=none;fillColor=none;align=center;verticalAlign=middle;whiteSpace=wrap;rounded=0;container=0;" vertex="1" parent="1">
          <mxGeometry x="410" y="220" width="20" height="20" as="geometry" />
        </mxCell>
        <mxCell id="sZlEgf58-mVy-AABWBIX-163" value="" style="endArrow=none;html=1;rounded=0;strokeWidth=1;" edge="1" parent="1">
          <mxGeometry width="50" height="50" relative="1" as="geometry">
            <mxPoint x="290" y="210" as="sourcePoint" />
            <mxPoint x="430" y="210" as="targetPoint" />
          </mxGeometry>
        </mxCell>
        <mxCell id="sZlEgf58-mVy-AABWBIX-164" value="" style="endArrow=none;html=1;rounded=0;strokeWidth=1;" edge="1" parent="1">
          <mxGeometry width="50" height="50" relative="1" as="geometry">
            <mxPoint x="360" y="205" as="sourcePoint" />
            <mxPoint x="360" y="215" as="targetPoint" />
          </mxGeometry>
        </mxCell>
        <mxCell id="sZlEgf58-mVy-AABWBIX-165" value="" style="endArrow=none;html=1;rounded=0;strokeWidth=1;" edge="1" parent="1">
          <mxGeometry width="50" height="50" relative="1" as="geometry">
            <mxPoint x="380" y="205" as="sourcePoint" />
            <mxPoint x="380" y="215" as="targetPoint" />
          </mxGeometry>
        </mxCell>
        <mxCell id="sZlEgf58-mVy-AABWBIX-166" value="" style="endArrow=none;html=1;rounded=0;strokeWidth=1;" edge="1" parent="1">
          <mxGeometry width="50" height="50" relative="1" as="geometry">
            <mxPoint x="400" y="205" as="sourcePoint" />
            <mxPoint x="400" y="215" as="targetPoint" />
          </mxGeometry>
        </mxCell>
        <mxCell id="sZlEgf58-mVy-AABWBIX-167" value="" style="endArrow=none;html=1;rounded=0;strokeWidth=1;" edge="1" parent="1">
          <mxGeometry width="50" height="50" relative="1" as="geometry">
            <mxPoint x="420" y="205" as="sourcePoint" />
            <mxPoint x="420" y="215" as="targetPoint" />
          </mxGeometry>
        </mxCell>
        <mxCell id="sZlEgf58-mVy-AABWBIX-168" value="" style="endArrow=none;html=1;rounded=0;strokeWidth=1;" edge="1" parent="1">
          <mxGeometry width="50" height="50" relative="1" as="geometry">
            <mxPoint x="340" y="205" as="sourcePoint" />
            <mxPoint x="340" y="215" as="targetPoint" />
          </mxGeometry>
        </mxCell>
        <mxCell id="sZlEgf58-mVy-AABWBIX-169" value="" style="endArrow=none;html=1;rounded=0;strokeWidth=1;" edge="1" parent="1">
          <mxGeometry width="50" height="50" relative="1" as="geometry">
            <mxPoint x="320" y="205" as="sourcePoint" />
            <mxPoint x="320" y="215" as="targetPoint" />
          </mxGeometry>
        </mxCell>
        <mxCell id="sZlEgf58-mVy-AABWBIX-170" value="" style="endArrow=none;html=1;rounded=0;strokeWidth=1;" edge="1" parent="1">
          <mxGeometry width="50" height="50" relative="1" as="geometry">
            <mxPoint x="300" y="205" as="sourcePoint" />
            <mxPoint x="300" y="215" as="targetPoint" />
          </mxGeometry>
        </mxCell>
        <mxCell id="sZlEgf58-mVy-AABWBIX-188" value="-3" style="text;html=1;strokeColor=none;fillColor=none;align=left;verticalAlign=middle;whiteSpace=wrap;rounded=0;container=0;" vertex="1" parent="1">
          <mxGeometry x="490" y="220" width="20" height="20" as="geometry" />
        </mxCell>
        <mxCell id="sZlEgf58-mVy-AABWBIX-189" value="-2" style="text;html=1;strokeColor=none;fillColor=none;align=left;verticalAlign=middle;whiteSpace=wrap;rounded=0;container=0;" vertex="1" parent="1">
          <mxGeometry x="510" y="220" width="20" height="20" as="geometry" />
        </mxCell>
        <mxCell id="sZlEgf58-mVy-AABWBIX-190" value="-1" style="text;html=1;strokeColor=none;fillColor=none;align=left;verticalAlign=middle;whiteSpace=wrap;rounded=0;container=0;" vertex="1" parent="1">
          <mxGeometry x="530" y="220" width="20" height="20" as="geometry" />
        </mxCell>
        <mxCell id="sZlEgf58-mVy-AABWBIX-191" value="0" style="text;html=1;strokeColor=none;fillColor=none;align=center;verticalAlign=middle;whiteSpace=wrap;rounded=0;container=0;" vertex="1" parent="1">
          <mxGeometry x="550" y="220" width="20" height="20" as="geometry" />
        </mxCell>
        <mxCell id="sZlEgf58-mVy-AABWBIX-192" value="1" style="text;html=1;strokeColor=none;fillColor=none;align=center;verticalAlign=middle;whiteSpace=wrap;rounded=0;container=0;" vertex="1" parent="1">
          <mxGeometry x="570" y="220" width="20" height="20" as="geometry" />
        </mxCell>
        <mxCell id="sZlEgf58-mVy-AABWBIX-193" value="2" style="text;html=1;strokeColor=none;fillColor=none;align=center;verticalAlign=middle;whiteSpace=wrap;rounded=0;container=0;" vertex="1" parent="1">
          <mxGeometry x="590" y="220" width="20" height="20" as="geometry" />
        </mxCell>
        <mxCell id="sZlEgf58-mVy-AABWBIX-194" value="3" style="text;html=1;strokeColor=none;fillColor=none;align=center;verticalAlign=middle;whiteSpace=wrap;rounded=0;container=0;" vertex="1" parent="1">
          <mxGeometry x="610" y="220" width="20" height="20" as="geometry" />
        </mxCell>
        <mxCell id="sZlEgf58-mVy-AABWBIX-180" value="" style="endArrow=none;html=1;rounded=0;strokeWidth=1;" edge="1" parent="1">
          <mxGeometry width="50" height="50" relative="1" as="geometry">
            <mxPoint x="490" y="210" as="sourcePoint" />
            <mxPoint x="630" y="210" as="targetPoint" />
          </mxGeometry>
        </mxCell>
        <mxCell id="sZlEgf58-mVy-AABWBIX-181" value="" style="endArrow=none;html=1;rounded=0;strokeWidth=1;" edge="1" parent="1">
          <mxGeometry width="50" height="50" relative="1" as="geometry">
            <mxPoint x="560" y="205" as="sourcePoint" />
            <mxPoint x="560" y="215" as="targetPoint" />
          </mxGeometry>
        </mxCell>
        <mxCell id="sZlEgf58-mVy-AABWBIX-182" value="" style="endArrow=none;html=1;rounded=0;strokeWidth=1;" edge="1" parent="1">
          <mxGeometry width="50" height="50" relative="1" as="geometry">
            <mxPoint x="580" y="205" as="sourcePoint" />
            <mxPoint x="580" y="215" as="targetPoint" />
          </mxGeometry>
        </mxCell>
        <mxCell id="sZlEgf58-mVy-AABWBIX-183" value="" style="endArrow=none;html=1;rounded=0;strokeWidth=1;" edge="1" parent="1">
          <mxGeometry width="50" height="50" relative="1" as="geometry">
            <mxPoint x="600" y="205" as="sourcePoint" />
            <mxPoint x="600" y="215" as="targetPoint" />
          </mxGeometry>
        </mxCell>
        <mxCell id="sZlEgf58-mVy-AABWBIX-184" value="" style="endArrow=none;html=1;rounded=0;strokeWidth=1;" edge="1" parent="1">
          <mxGeometry width="50" height="50" relative="1" as="geometry">
            <mxPoint x="620" y="205" as="sourcePoint" />
            <mxPoint x="620" y="215" as="targetPoint" />
          </mxGeometry>
        </mxCell>
        <mxCell id="sZlEgf58-mVy-AABWBIX-185" value="" style="endArrow=none;html=1;rounded=0;strokeWidth=1;" edge="1" parent="1">
          <mxGeometry width="50" height="50" relative="1" as="geometry">
            <mxPoint x="540" y="205" as="sourcePoint" />
            <mxPoint x="540" y="215" as="targetPoint" />
          </mxGeometry>
        </mxCell>
        <mxCell id="sZlEgf58-mVy-AABWBIX-186" value="" style="endArrow=none;html=1;rounded=0;strokeWidth=1;" edge="1" parent="1">
          <mxGeometry width="50" height="50" relative="1" as="geometry">
            <mxPoint x="520" y="205" as="sourcePoint" />
            <mxPoint x="520" y="215" as="targetPoint" />
          </mxGeometry>
        </mxCell>
        <mxCell id="sZlEgf58-mVy-AABWBIX-187" value="" style="endArrow=none;html=1;rounded=0;strokeWidth=1;" edge="1" parent="1">
          <mxGeometry width="50" height="50" relative="1" as="geometry">
            <mxPoint x="500" y="205" as="sourcePoint" />
            <mxPoint x="500" y="215" as="targetPoint" />
          </mxGeometry>
        </mxCell>
        <mxCell id="sZlEgf58-mVy-AABWBIX-218" value="4" style="text;html=1;strokeColor=none;fillColor=none;align=right;verticalAlign=middle;whiteSpace=wrap;rounded=0;" vertex="1" parent="1">
          <mxGeometry x="40" y="100" width="20" height="20" as="geometry" />
        </mxCell>
        <mxCell id="sZlEgf58-mVy-AABWBIX-219" value="5" style="text;html=1;strokeColor=none;fillColor=none;align=right;verticalAlign=middle;whiteSpace=wrap;rounded=0;" vertex="1" parent="1">
          <mxGeometry x="40" y="80" width="20" height="20" as="geometry" />
        </mxCell>
        <mxCell id="sZlEgf58-mVy-AABWBIX-220" value="0" style="text;html=1;strokeColor=none;fillColor=none;align=right;verticalAlign=middle;whiteSpace=wrap;rounded=0;" vertex="1" parent="1">
          <mxGeometry x="240" y="180" width="20" height="20" as="geometry" />
        </mxCell>
        <mxCell id="sZlEgf58-mVy-AABWBIX-221" value="1" style="text;html=1;strokeColor=none;fillColor=none;align=right;verticalAlign=middle;whiteSpace=wrap;rounded=0;" vertex="1" parent="1">
          <mxGeometry x="240" y="160" width="20" height="20" as="geometry" />
        </mxCell>
        <mxCell id="sZlEgf58-mVy-AABWBIX-222" value="2" style="text;html=1;strokeColor=none;fillColor=none;align=right;verticalAlign=middle;whiteSpace=wrap;rounded=0;" vertex="1" parent="1">
          <mxGeometry x="240" y="140" width="20" height="20" as="geometry" />
        </mxCell>
        <mxCell id="sZlEgf58-mVy-AABWBIX-223" value="3" style="text;html=1;strokeColor=none;fillColor=none;align=right;verticalAlign=middle;whiteSpace=wrap;rounded=0;" vertex="1" parent="1">
          <mxGeometry x="240" y="120" width="20" height="20" as="geometry" />
        </mxCell>
        <mxCell id="sZlEgf58-mVy-AABWBIX-224" value="" style="endArrow=none;html=1;rounded=0;strokeWidth=1;" edge="1" parent="1">
          <mxGeometry width="50" height="50" relative="1" as="geometry">
            <mxPoint x="270" y="90" as="sourcePoint" />
            <mxPoint x="270" y="190" as="targetPoint" />
          </mxGeometry>
        </mxCell>
        <mxCell id="sZlEgf58-mVy-AABWBIX-225" value="" style="endArrow=none;html=1;rounded=0;strokeWidth=1;" edge="1" parent="1">
          <mxGeometry width="50" height="50" relative="1" as="geometry">
            <mxPoint x="275" y="90" as="sourcePoint" />
            <mxPoint x="265" y="90" as="targetPoint" />
          </mxGeometry>
        </mxCell>
        <mxCell id="sZlEgf58-mVy-AABWBIX-226" value="" style="endArrow=none;html=1;rounded=0;strokeWidth=1;" edge="1" parent="1">
          <mxGeometry width="50" height="50" relative="1" as="geometry">
            <mxPoint x="275" y="190" as="sourcePoint" />
            <mxPoint x="265" y="190" as="targetPoint" />
          </mxGeometry>
        </mxCell>
        <mxCell id="sZlEgf58-mVy-AABWBIX-227" value="" style="endArrow=none;html=1;rounded=0;strokeWidth=1;" edge="1" parent="1">
          <mxGeometry width="50" height="50" relative="1" as="geometry">
            <mxPoint x="275" y="110" as="sourcePoint" />
            <mxPoint x="265" y="110" as="targetPoint" />
          </mxGeometry>
        </mxCell>
        <mxCell id="sZlEgf58-mVy-AABWBIX-228" value="" style="endArrow=none;html=1;rounded=0;strokeWidth=1;" edge="1" parent="1">
          <mxGeometry width="50" height="50" relative="1" as="geometry">
            <mxPoint x="275" y="130" as="sourcePoint" />
            <mxPoint x="265" y="130" as="targetPoint" />
          </mxGeometry>
        </mxCell>
        <mxCell id="sZlEgf58-mVy-AABWBIX-229" value="" style="endArrow=none;html=1;rounded=0;strokeWidth=1;" edge="1" parent="1">
          <mxGeometry width="50" height="50" relative="1" as="geometry">
            <mxPoint x="275" y="150" as="sourcePoint" />
            <mxPoint x="265" y="150" as="targetPoint" />
          </mxGeometry>
        </mxCell>
        <mxCell id="sZlEgf58-mVy-AABWBIX-230" value="" style="endArrow=none;html=1;rounded=0;strokeWidth=1;" edge="1" parent="1">
          <mxGeometry width="50" height="50" relative="1" as="geometry">
            <mxPoint x="275" y="170" as="sourcePoint" />
            <mxPoint x="265" y="170" as="targetPoint" />
          </mxGeometry>
        </mxCell>
        <mxCell id="sZlEgf58-mVy-AABWBIX-231" value="4" style="text;html=1;strokeColor=none;fillColor=none;align=right;verticalAlign=middle;whiteSpace=wrap;rounded=0;" vertex="1" parent="1">
          <mxGeometry x="240" y="100" width="20" height="20" as="geometry" />
        </mxCell>
        <mxCell id="sZlEgf58-mVy-AABWBIX-232" value="5" style="text;html=1;strokeColor=none;fillColor=none;align=right;verticalAlign=middle;whiteSpace=wrap;rounded=0;" vertex="1" parent="1">
          <mxGeometry x="240" y="80" width="20" height="20" as="geometry" />
        </mxCell>
        <mxCell id="sZlEgf58-mVy-AABWBIX-233" value="0" style="text;html=1;strokeColor=none;fillColor=none;align=right;verticalAlign=middle;whiteSpace=wrap;rounded=0;" vertex="1" parent="1">
          <mxGeometry x="440" y="180" width="20" height="20" as="geometry" />
        </mxCell>
        <mxCell id="sZlEgf58-mVy-AABWBIX-234" value="1" style="text;html=1;strokeColor=none;fillColor=none;align=right;verticalAlign=middle;whiteSpace=wrap;rounded=0;" vertex="1" parent="1">
          <mxGeometry x="440" y="160" width="20" height="20" as="geometry" />
        </mxCell>
        <mxCell id="sZlEgf58-mVy-AABWBIX-235" value="2" style="text;html=1;strokeColor=none;fillColor=none;align=right;verticalAlign=middle;whiteSpace=wrap;rounded=0;" vertex="1" parent="1">
          <mxGeometry x="440" y="140" width="20" height="20" as="geometry" />
        </mxCell>
        <mxCell id="sZlEgf58-mVy-AABWBIX-236" value="3" style="text;html=1;strokeColor=none;fillColor=none;align=right;verticalAlign=middle;whiteSpace=wrap;rounded=0;" vertex="1" parent="1">
          <mxGeometry x="440" y="120" width="20" height="20" as="geometry" />
        </mxCell>
        <mxCell id="sZlEgf58-mVy-AABWBIX-237" value="" style="endArrow=none;html=1;rounded=0;strokeWidth=1;" edge="1" parent="1">
          <mxGeometry width="50" height="50" relative="1" as="geometry">
            <mxPoint x="470" y="90" as="sourcePoint" />
            <mxPoint x="470" y="190" as="targetPoint" />
          </mxGeometry>
        </mxCell>
        <mxCell id="sZlEgf58-mVy-AABWBIX-238" value="" style="endArrow=none;html=1;rounded=0;strokeWidth=1;" edge="1" parent="1">
          <mxGeometry width="50" height="50" relative="1" as="geometry">
            <mxPoint x="475" y="90" as="sourcePoint" />
            <mxPoint x="465" y="90" as="targetPoint" />
          </mxGeometry>
        </mxCell>
        <mxCell id="sZlEgf58-mVy-AABWBIX-239" value="" style="endArrow=none;html=1;rounded=0;strokeWidth=1;" edge="1" parent="1">
          <mxGeometry width="50" height="50" relative="1" as="geometry">
            <mxPoint x="475" y="190" as="sourcePoint" />
            <mxPoint x="465" y="190" as="targetPoint" />
          </mxGeometry>
        </mxCell>
        <mxCell id="sZlEgf58-mVy-AABWBIX-240" value="" style="endArrow=none;html=1;rounded=0;strokeWidth=1;" edge="1" parent="1">
          <mxGeometry width="50" height="50" relative="1" as="geometry">
            <mxPoint x="475" y="110" as="sourcePoint" />
            <mxPoint x="465" y="110" as="targetPoint" />
          </mxGeometry>
        </mxCell>
        <mxCell id="sZlEgf58-mVy-AABWBIX-241" value="" style="endArrow=none;html=1;rounded=0;strokeWidth=1;" edge="1" parent="1">
          <mxGeometry width="50" height="50" relative="1" as="geometry">
            <mxPoint x="475" y="130" as="sourcePoint" />
            <mxPoint x="465" y="130" as="targetPoint" />
          </mxGeometry>
        </mxCell>
        <mxCell id="sZlEgf58-mVy-AABWBIX-242" value="" style="endArrow=none;html=1;rounded=0;strokeWidth=1;" edge="1" parent="1">
          <mxGeometry width="50" height="50" relative="1" as="geometry">
            <mxPoint x="475" y="150" as="sourcePoint" />
            <mxPoint x="465" y="150" as="targetPoint" />
          </mxGeometry>
        </mxCell>
        <mxCell id="sZlEgf58-mVy-AABWBIX-243" value="" style="endArrow=none;html=1;rounded=0;strokeWidth=1;" edge="1" parent="1">
          <mxGeometry width="50" height="50" relative="1" as="geometry">
            <mxPoint x="475" y="170" as="sourcePoint" />
            <mxPoint x="465" y="170" as="targetPoint" />
          </mxGeometry>
        </mxCell>
        <mxCell id="sZlEgf58-mVy-AABWBIX-244" value="4" style="text;html=1;strokeColor=none;fillColor=none;align=right;verticalAlign=middle;whiteSpace=wrap;rounded=0;" vertex="1" parent="1">
          <mxGeometry x="440" y="100" width="20" height="20" as="geometry" />
        </mxCell>
        <mxCell id="sZlEgf58-mVy-AABWBIX-245" value="5" style="text;html=1;strokeColor=none;fillColor=none;align=right;verticalAlign=middle;whiteSpace=wrap;rounded=0;" vertex="1" parent="1">
          <mxGeometry x="440" y="80" width="20" height="20" as="geometry" />
        </mxCell>
        <mxCell id="sZlEgf58-mVy-AABWBIX-246" value="\(f_{\text{pre}}\)" style="text;html=1;strokeColor=none;fillColor=none;align=center;verticalAlign=middle;whiteSpace=wrap;rounded=0;fontSize=20;" vertex="1" parent="1">
          <mxGeometry x="80" y="40" width="160" height="40" as="geometry" />
        </mxCell>
        <mxCell id="sZlEgf58-mVy-AABWBIX-247" value="\(f_{\text{around}}\)" style="text;html=1;strokeColor=none;fillColor=none;align=center;verticalAlign=middle;whiteSpace=wrap;rounded=0;fontSize=20;" vertex="1" parent="1">
          <mxGeometry x="280" y="40" width="160" height="40" as="geometry" />
        </mxCell>
        <mxCell id="sZlEgf58-mVy-AABWBIX-248" value="\(f_{\text{post}}\)" style="text;html=1;strokeColor=none;fillColor=none;align=center;verticalAlign=middle;whiteSpace=wrap;rounded=0;fontSize=20;" vertex="1" parent="1">
          <mxGeometry x="480" y="40" width="160" height="40" as="geometry" />
        </mxCell>
      </root>
    </mxGraphModel>
  </diagram>
</mxfile>
